%
M48
M72
T01C0.0138
T02C0.0320
T03C0.0400
T04C0.1400
%
T01
X12959Y13893
X12972Y15518
X16334Y14768
X17334Y14768
X15334Y8768
X23709Y10393
X27834Y16268
X15834Y24831
X14834Y26143
X14334Y23643
X14834Y22018
X11459Y20518
X9334Y27643
X8834Y28643
X11334Y29643
X12834Y30643
X16834Y34268
X16959Y32393
X21834Y44329
X30459Y37268
T02
X28334Y35393
X27334Y35393
X26334Y35393
X25334Y35393
X24334Y35393
X23334Y35393
X22334Y35393
X21334Y35393
X21334Y32393
X22334Y32393
X23334Y32393
X24334Y32393
X25334Y32393
X26334Y32393
X27334Y32393
X28334Y32393
X21334Y23643
X20334Y23643
X19334Y23643
X18334Y23643
X17334Y23643
X16334Y23643
X15334Y23643
X14334Y23643
X14334Y20643
X15334Y20643
X16334Y20643
X17334Y20643
X18334Y20643
X19334Y20643
X20334Y20643
X21334Y20643
X23709Y16268
X25084Y16268
X26459Y16268
X27834Y16268
X27834Y13268
X26459Y13268
X25084Y13268
X23709Y13268
X17334Y13268
X16334Y16268
X14334Y13268
X13334Y16268
X13334Y32393
X14334Y32393
X12334Y32393
X11334Y32393
X10334Y32393
X9334Y32393
X8334Y32393
X7334Y32393
X7334Y35393
X8334Y35393
X9334Y35393
X10334Y35393
X11334Y35393
X12334Y35393
X13334Y35393
X14334Y35393
T03
X4959Y12143
X5959Y12143
X5959Y13143
X4959Y13143
X4959Y14143
X5959Y14143
X5959Y15143
X4959Y15143
X4959Y16143
X5959Y16143
X5959Y17143
X4959Y17143
X4959Y18143
X4959Y19143
X5959Y19143
X5959Y18143
X5959Y20143
X4959Y20143
X4959Y21143
X5959Y21143
X5959Y22143
X4959Y22143
X4959Y23143
X5959Y23143
X5959Y24143
X4959Y24143
X4959Y25143
X5959Y25143
X5959Y26143
X5959Y27143
X4959Y27143
X4959Y26143
X4959Y28143
X5959Y28143
X5959Y29143
X4959Y29143
X4959Y30143
X5959Y30143
X5959Y31143
X4959Y31143
X5209Y37268
X5209Y38643
X6209Y38643
X7209Y38643
X7209Y37268
X6209Y37268
X6209Y40143
X7209Y40143
X7209Y41643
X6209Y41643
X6209Y43018
X7209Y43018
X5209Y43018
X5209Y41643
X5209Y40143
X12584Y40893
X12584Y41893
X12584Y42893
X14959Y39268
X15959Y39268
X16959Y39268
X18709Y39268
X19709Y39268
X20709Y39268
X23084Y40893
X23084Y41893
X23084Y42893
X28459Y43018
X29459Y43018
X30459Y43018
X30459Y41643
X29459Y41643
X28459Y41643
X28459Y40143
X29459Y40143
X30459Y40143
X30459Y38643
X29459Y38643
X28459Y38643
X28459Y37268
X29459Y37268
X30459Y37268
X30709Y31143
X30709Y30143
X30709Y29143
X30709Y28143
X30709Y27143
X30709Y26143
X30709Y25143
X30709Y24143
X30709Y23143
X30709Y22143
X30709Y21143
X30709Y20143
X30709Y19143
X30709Y18143
X30709Y17143
X30709Y16143
X30709Y15143
X30709Y14143
X30709Y13143
X30709Y12143
X29709Y12143
X29709Y13143
X29709Y14143
X29709Y15143
X29709Y16143
X29709Y17143
X29709Y18143
X29709Y19143
X29709Y20143
X29709Y21143
X29709Y22143
X29709Y23143
X29709Y24143
X29709Y25143
X29709Y26143
X29709Y27143
X29709Y28143
X29709Y29143
X29709Y30143
X29709Y31143
X21334Y17768
X20334Y17768
X19334Y17768
X18334Y17768
X17334Y17768
X16334Y17768
X15334Y17768
X14334Y17768
X14334Y14768
X15334Y14768
X16334Y14768
X17334Y14768
X18334Y14768
X19334Y14768
X20334Y14768
X21334Y14768
X21334Y11768
X20334Y11768
X19334Y11768
X18334Y11768
X17334Y11768
X16334Y11768
X15334Y11768
X14334Y11768
X14334Y8768
X15334Y8768
X16334Y8768
X17334Y8768
X18334Y8768
X19334Y8768
X20334Y8768
X21334Y8768
X23709Y10393
X23709Y11393
X23709Y12393
X25084Y12393
X25084Y11393
X25084Y10393
X26459Y10393
X26459Y11393
X26459Y12393
X27834Y12393
X27834Y11393
X27834Y10393
X18834Y26768
X16834Y26768
X16834Y34268
X18834Y34268
X10834Y10518
X9834Y10518
T04
X25709Y26893
X25709Y28643
X25709Y30393
M30
