G75*
%MOIN*%
%OFA0B0*%
%FSLAX25Y25*%
%IPPOS*%
%LPD*%
%AMOC8*
5,1,8,0,0,1.08239X$1,22.5*
%
%ADD10C,0.06000*%
%ADD11OC8,0.06000*%
%ADD12C,0.05200*%
%ADD13OC8,0.05200*%
%ADD14C,0.10000*%
%ADD15OC8,0.10000*%
%ADD16C,0.01600*%
%ADD17C,0.02978*%
%ADD18C,0.03200*%
D10*
X0098342Y0102183D02*
X0098342Y0108183D01*
X0108342Y0108183D02*
X0108342Y0102183D01*
X0143342Y0090683D02*
X0143342Y0084683D01*
X0153342Y0084683D02*
X0153342Y0090683D01*
X0163342Y0090683D02*
X0163342Y0084683D01*
X0173342Y0084683D02*
X0173342Y0090683D01*
X0183342Y0090683D02*
X0183342Y0084683D01*
X0193342Y0084683D02*
X0193342Y0090683D01*
X0203342Y0090683D02*
X0203342Y0084683D01*
X0213342Y0084683D02*
X0213342Y0090683D01*
X0213342Y0114683D02*
X0213342Y0120683D01*
X0203342Y0120683D02*
X0203342Y0114683D01*
X0193342Y0114683D02*
X0193342Y0120683D01*
X0183342Y0120683D02*
X0183342Y0114683D01*
X0173342Y0114683D02*
X0173342Y0120683D01*
X0163342Y0120683D02*
X0163342Y0114683D01*
X0153342Y0114683D02*
X0153342Y0120683D01*
X0143342Y0120683D02*
X0143342Y0114683D01*
X0143342Y0144683D02*
X0143342Y0150683D01*
X0153342Y0150683D02*
X0153342Y0144683D01*
X0163342Y0144683D02*
X0163342Y0150683D01*
X0173342Y0150683D02*
X0173342Y0144683D01*
X0183342Y0144683D02*
X0183342Y0150683D01*
X0193342Y0150683D02*
X0193342Y0144683D01*
X0203342Y0144683D02*
X0203342Y0150683D01*
X0213342Y0150683D02*
X0213342Y0144683D01*
X0234092Y0123933D02*
X0240092Y0123933D01*
X0247842Y0123933D02*
X0253842Y0123933D01*
X0261592Y0123933D02*
X0267592Y0123933D01*
X0275342Y0123933D02*
X0281342Y0123933D01*
X0281342Y0113933D02*
X0275342Y0113933D01*
X0267592Y0113933D02*
X0261592Y0113933D01*
X0253842Y0113933D02*
X0247842Y0113933D01*
X0240092Y0113933D02*
X0234092Y0113933D01*
X0234092Y0103933D02*
X0240092Y0103933D01*
X0247842Y0103933D02*
X0253842Y0103933D01*
X0261592Y0103933D02*
X0267592Y0103933D01*
X0275342Y0103933D02*
X0281342Y0103933D01*
X0213342Y0174683D02*
X0213342Y0180683D01*
X0203342Y0180683D02*
X0203342Y0174683D01*
X0193342Y0174683D02*
X0193342Y0180683D01*
X0183342Y0180683D02*
X0183342Y0174683D01*
X0173342Y0174683D02*
X0173342Y0180683D01*
X0163342Y0180683D02*
X0163342Y0174683D01*
X0153342Y0174683D02*
X0153342Y0180683D01*
X0143342Y0180683D02*
X0143342Y0174683D01*
X0072092Y0369683D02*
X0072092Y0375683D01*
X0072092Y0383433D02*
X0072092Y0389433D01*
X0072092Y0398433D02*
X0072092Y0404433D01*
X0072092Y0413433D02*
X0072092Y0419433D01*
X0072092Y0427183D02*
X0072092Y0433183D01*
X0062092Y0433183D02*
X0062092Y0427183D01*
X0062092Y0419433D02*
X0062092Y0413433D01*
X0062092Y0404433D02*
X0062092Y0398433D01*
X0062092Y0389433D02*
X0062092Y0383433D01*
X0062092Y0375683D02*
X0062092Y0369683D01*
X0052092Y0369683D02*
X0052092Y0375683D01*
X0052092Y0383433D02*
X0052092Y0389433D01*
X0052092Y0398433D02*
X0052092Y0404433D01*
X0052092Y0413433D02*
X0052092Y0419433D01*
X0052092Y0427183D02*
X0052092Y0433183D01*
X0122842Y0428933D02*
X0128842Y0428933D01*
X0128842Y0418933D02*
X0122842Y0418933D01*
X0122842Y0408933D02*
X0128842Y0408933D01*
X0149592Y0395683D02*
X0149592Y0389683D01*
X0159592Y0389683D02*
X0159592Y0395683D01*
X0169592Y0395683D02*
X0169592Y0389683D01*
X0187092Y0389683D02*
X0187092Y0395683D01*
X0197092Y0395683D02*
X0197092Y0389683D01*
X0207092Y0389683D02*
X0207092Y0395683D01*
X0227842Y0408933D02*
X0233842Y0408933D01*
X0233842Y0418933D02*
X0227842Y0418933D01*
X0227842Y0428933D02*
X0233842Y0428933D01*
X0284592Y0427183D02*
X0284592Y0433183D01*
X0294592Y0433183D02*
X0294592Y0427183D01*
X0294592Y0419433D02*
X0294592Y0413433D01*
X0294592Y0404433D02*
X0294592Y0398433D01*
X0294592Y0389433D02*
X0294592Y0383433D01*
X0294592Y0375683D02*
X0294592Y0369683D01*
X0304592Y0369683D02*
X0304592Y0375683D01*
X0304592Y0383433D02*
X0304592Y0389433D01*
X0304592Y0398433D02*
X0304592Y0404433D01*
X0304592Y0413433D02*
X0304592Y0419433D01*
X0304592Y0427183D02*
X0304592Y0433183D01*
X0284592Y0419433D02*
X0284592Y0413433D01*
X0284592Y0404433D02*
X0284592Y0398433D01*
X0284592Y0389433D02*
X0284592Y0383433D01*
X0284592Y0375683D02*
X0284592Y0369683D01*
D11*
X0049592Y0121433D03*
X0059592Y0121433D03*
X0059592Y0131433D03*
X0059592Y0141433D03*
X0059592Y0151433D03*
X0059592Y0161433D03*
X0059592Y0171433D03*
X0059592Y0181433D03*
X0059592Y0191433D03*
X0059592Y0201433D03*
X0059592Y0211433D03*
X0059592Y0221433D03*
X0059592Y0231433D03*
X0059592Y0241433D03*
X0059592Y0251433D03*
X0059592Y0261433D03*
X0059592Y0271433D03*
X0059592Y0281433D03*
X0059592Y0291433D03*
X0059592Y0301433D03*
X0059592Y0311433D03*
X0049592Y0311433D03*
X0049592Y0301433D03*
X0049592Y0291433D03*
X0049592Y0281433D03*
X0049592Y0271433D03*
X0049592Y0261433D03*
X0049592Y0251433D03*
X0049592Y0241433D03*
X0049592Y0231433D03*
X0049592Y0221433D03*
X0049592Y0211433D03*
X0049592Y0201433D03*
X0049592Y0191433D03*
X0049592Y0181433D03*
X0049592Y0171433D03*
X0049592Y0161433D03*
X0049592Y0151433D03*
X0049592Y0141433D03*
X0049592Y0131433D03*
X0297092Y0131433D03*
X0307092Y0131433D03*
X0307092Y0121433D03*
X0297092Y0121433D03*
X0297092Y0141433D03*
X0307092Y0141433D03*
X0307092Y0151433D03*
X0307092Y0161433D03*
X0307092Y0171433D03*
X0307092Y0181433D03*
X0307092Y0191433D03*
X0307092Y0201433D03*
X0307092Y0211433D03*
X0307092Y0221433D03*
X0307092Y0231433D03*
X0307092Y0241433D03*
X0307092Y0251433D03*
X0307092Y0261433D03*
X0307092Y0271433D03*
X0307092Y0281433D03*
X0307092Y0291433D03*
X0307092Y0301433D03*
X0307092Y0311433D03*
X0297092Y0311433D03*
X0297092Y0301433D03*
X0297092Y0291433D03*
X0297092Y0281433D03*
X0297092Y0271433D03*
X0297092Y0261433D03*
X0297092Y0251433D03*
X0297092Y0241433D03*
X0297092Y0231433D03*
X0297092Y0221433D03*
X0297092Y0211433D03*
X0297092Y0201433D03*
X0297092Y0191433D03*
X0297092Y0181433D03*
X0297092Y0171433D03*
X0297092Y0161433D03*
X0297092Y0151433D03*
D12*
X0213342Y0203833D02*
X0213342Y0209033D01*
X0203342Y0209033D02*
X0203342Y0203833D01*
X0193342Y0203833D02*
X0193342Y0209033D01*
X0183342Y0209033D02*
X0183342Y0203833D01*
X0173342Y0203833D02*
X0173342Y0209033D01*
X0163342Y0209033D02*
X0163342Y0203833D01*
X0153342Y0203833D02*
X0153342Y0209033D01*
X0143342Y0209033D02*
X0143342Y0203833D01*
X0143342Y0233833D02*
X0143342Y0239033D01*
X0153342Y0239033D02*
X0153342Y0233833D01*
X0163342Y0233833D02*
X0163342Y0239033D01*
X0173342Y0239033D02*
X0173342Y0233833D01*
X0183342Y0233833D02*
X0183342Y0239033D01*
X0193342Y0239033D02*
X0193342Y0233833D01*
X0203342Y0233833D02*
X0203342Y0239033D01*
X0213342Y0239033D02*
X0213342Y0233833D01*
X0213342Y0321333D02*
X0213342Y0326533D01*
X0223342Y0326533D02*
X0223342Y0321333D01*
X0233342Y0321333D02*
X0233342Y0326533D01*
X0243342Y0326533D02*
X0243342Y0321333D01*
X0253342Y0321333D02*
X0253342Y0326533D01*
X0263342Y0326533D02*
X0263342Y0321333D01*
X0273342Y0321333D02*
X0273342Y0326533D01*
X0283342Y0326533D02*
X0283342Y0321333D01*
X0283342Y0351333D02*
X0283342Y0356533D01*
X0273342Y0356533D02*
X0273342Y0351333D01*
X0263342Y0351333D02*
X0263342Y0356533D01*
X0253342Y0356533D02*
X0253342Y0351333D01*
X0243342Y0351333D02*
X0243342Y0356533D01*
X0233342Y0356533D02*
X0233342Y0351333D01*
X0223342Y0351333D02*
X0223342Y0356533D01*
X0213342Y0356533D02*
X0213342Y0351333D01*
X0143342Y0351333D02*
X0143342Y0356533D01*
X0133342Y0356533D02*
X0133342Y0351333D01*
X0123342Y0351333D02*
X0123342Y0356533D01*
X0113342Y0356533D02*
X0113342Y0351333D01*
X0103342Y0351333D02*
X0103342Y0356533D01*
X0093342Y0356533D02*
X0093342Y0351333D01*
X0083342Y0351333D02*
X0083342Y0356533D01*
X0073342Y0356533D02*
X0073342Y0351333D01*
X0073342Y0326533D02*
X0073342Y0321333D01*
X0083342Y0321333D02*
X0083342Y0326533D01*
X0093342Y0326533D02*
X0093342Y0321333D01*
X0103342Y0321333D02*
X0103342Y0326533D01*
X0113342Y0326533D02*
X0113342Y0321333D01*
X0123342Y0321333D02*
X0123342Y0326533D01*
X0133342Y0326533D02*
X0133342Y0321333D01*
X0143342Y0321333D02*
X0143342Y0326533D01*
D13*
X0133342Y0162683D03*
X0143342Y0132683D03*
X0163342Y0162683D03*
X0173342Y0132683D03*
X0237092Y0132683D03*
X0250842Y0132683D03*
X0264592Y0132683D03*
X0278342Y0132683D03*
X0278342Y0162683D03*
X0264592Y0162683D03*
X0250842Y0162683D03*
X0237092Y0162683D03*
D14*
X0168342Y0267683D03*
X0168342Y0342683D03*
D15*
X0188342Y0342683D03*
X0188342Y0267683D03*
D16*
X0203342Y0246433D02*
X0203342Y0388933D01*
X0207092Y0392683D01*
X0169592Y0392683D02*
X0169592Y0386433D01*
X0155217Y0372058D01*
X0146467Y0372058D01*
X0133342Y0358933D01*
X0133342Y0353933D01*
X0128342Y0348933D02*
X0123342Y0353933D01*
X0128342Y0348933D02*
X0128342Y0306433D01*
X0138342Y0307683D02*
X0120842Y0290183D01*
X0120842Y0206433D01*
X0112092Y0197683D01*
X0102092Y0197683D01*
X0095217Y0190808D01*
X0095217Y0152058D01*
X0064592Y0121433D01*
X0059592Y0121433D01*
X0062092Y0126433D02*
X0054592Y0126433D01*
X0049592Y0121433D01*
X0062092Y0126433D02*
X0089592Y0153933D01*
X0090842Y0155183D01*
X0090842Y0191433D01*
X0092092Y0192683D01*
X0092092Y0192683D01*
X0100842Y0201433D01*
X0110842Y0201433D01*
X0114592Y0205183D01*
X0143342Y0197683D02*
X0143342Y0177683D01*
X0153342Y0177683D02*
X0153342Y0197683D01*
X0158342Y0202683D01*
X0158342Y0248308D01*
X0148342Y0261433D02*
X0148342Y0220183D01*
X0148342Y0202683D01*
X0143342Y0197683D01*
X0129716Y0155181D02*
X0165844Y0155181D01*
X0173342Y0147683D01*
X0163342Y0147683D02*
X0163342Y0146433D01*
X0155842Y0138933D01*
X0129592Y0138933D01*
X0054592Y0176433D02*
X0049592Y0171433D01*
X0054592Y0176433D02*
X0054592Y0256433D01*
X0049592Y0261433D01*
X0088342Y0286433D02*
X0088342Y0343933D01*
X0093342Y0348933D01*
X0093342Y0353933D01*
X0093342Y0323933D02*
X0093342Y0276433D01*
X0113342Y0296433D02*
X0113342Y0323933D01*
X0138342Y0307683D02*
X0138342Y0343933D01*
X0143342Y0348933D01*
X0143342Y0353933D01*
X0203342Y0246433D02*
X0193342Y0236433D01*
X0237092Y0162683D02*
X0278342Y0162683D01*
X0278342Y0132683D02*
X0278342Y0123933D01*
X0278342Y0113933D02*
X0299592Y0113933D01*
X0307092Y0121433D01*
X0297092Y0121433D02*
X0294592Y0118933D01*
X0269592Y0118933D01*
X0264592Y0113933D01*
X0264592Y0123933D02*
X0264592Y0132683D01*
X0250842Y0132683D02*
X0250842Y0123933D01*
X0237092Y0123933D02*
X0237092Y0132683D01*
X0237092Y0103933D02*
X0278342Y0103933D01*
D17*
X0237092Y0103933D03*
X0278342Y0162683D03*
X0173342Y0147683D03*
X0163342Y0147683D03*
X0129716Y0155181D03*
X0129592Y0138933D03*
X0153342Y0087683D03*
X0114592Y0205183D03*
X0143342Y0236433D03*
X0148342Y0220183D03*
X0158342Y0248308D03*
X0148342Y0261433D03*
X0128342Y0306433D03*
X0113342Y0296433D03*
X0093342Y0276433D03*
X0088342Y0286433D03*
X0168342Y0342683D03*
X0169592Y0323933D03*
X0218342Y0443294D03*
X0304592Y0372683D03*
D18*
X0218342Y0358933D02*
X0218342Y0443294D01*
X0218342Y0358933D02*
X0213342Y0353933D01*
X0188342Y0342683D02*
X0169592Y0323933D01*
X0133967Y0288308D01*
X0133967Y0203308D01*
X0123967Y0193308D01*
X0123967Y0125808D01*
X0108342Y0110183D01*
X0108342Y0105183D01*
X0098342Y0105183D02*
X0098342Y0110183D01*
X0118342Y0130183D01*
X0118342Y0195183D01*
X0128967Y0205808D01*
X0128967Y0290808D01*
X0168342Y0330183D01*
X0168342Y0342683D01*
M02*
